<svg width="150" height="133" viewBox="0 0 150 133" fill="none" xmlns="http://www.w3.org/2000/svg">
<path fill-rule="evenodd" clip-rule="evenodd" d="M39.7841 102.938L38.5945 103.326L37.9707 103.503L37.8699 101.557L37.8384 101.365L37.8257 101.203L37.3113 100.575L37.1147 100.315L37.1212 100.26L37.3126 100.201L37.5318 100.161L37.5637 100.154L37.7842 100.107L37.9982 100.054L38.0282 99.9911L38.0341 99.9063L37.9982 99.8119L37.9679 99.7619L37.9323 99.7233L37.8687 99.6658L37.8443 99.6345L37.8362 99.581L37.8557 99.5312L37.894 99.4682L37.9604 99.3378L37.9656 99.1934L37.9189 99.0991L37.8554 98.9899L37.7786 98.8829L37.7511 98.8311L37.6769 98.7331L37.6327 98.6628L37.6716 98.5964L37.741 98.521L37.9202 98.4158L38.0024 98.3664L38.1299 98.2005L38.1494 98.1655L38.122 98.1434L38.0365 98.0898L37.904 98.0229L37.813 97.9766L37.7828 97.9415L37.7746 97.8768L37.7857 97.7992L37.7858 97.7623L37.7556 97.7421L37.7087 97.7365L37.524 97.7603L37.4465 97.7674L37.411 97.7435L37.3836 97.703L37.4028 97.6271L37.4638 97.4979L37.5738 97.3598L37.696 96.9537L37.8232 96.7655L37.8566 96.6992L37.8511 96.6696L37.763 96.6178L37.6558 96.5198L37.5458 96.287L37.4559 95.9926L37.416 95.8474L37.3861 95.805L37.3447 95.7921L37.0604 95.7712L36.9998 95.7712L36.9668 95.738L36.9503 95.6936L36.9669 95.6493L37.1549 95.4835L37.2521 95.323L37.2741 95.2382L37.2424 95.1014L37.2065 95.0737L37.135 95.0698L36.8866 95.0805L36.8341 95.0786L36.7983 95.0509L36.7243 94.9417L36.5177 94.7255L36.4048 94.5942L36.3856 94.5408L36.3885 94.4909L36.4437 94.4356L36.5242 94.3598L36.5436 94.3174L36.5358 94.1162L36.5442 94.0479L36.7408 93.7903L36.9015 93.6021L37.0006 93.5471L37.5859 93.3522L37.6553 93.3207L37.8087 93.1187L38.243 92.7591L38.2873 92.7037L38.3981 92.4308L38.4452 92.3772L38.5115 92.3478L38.6689 92.3166L39.116 92.2581L39.2954 92.157L39.5138 92.0445L39.6984 91.9849L39.9495 91.9391L40.5706 91.8016L40.8578 91.7097L40.9214 91.6636L40.9492 91.575L41.0324 91.3979L41.0628 91.3629L41.1017 91.3444L42.0475 91.1014L42.1969 91.0498L42.3126 90.9542L42.6035 90.6091L42.7115 90.3933L42.7392 90.3344L42.729 90.2233L42.7201 90.1309L42.6186 89.8262L42.5693 89.6233L42.5533 89.5595L42.4504 89.1383L42.4245 89.0339L42.3716 88.6421L42.2544 88.0307L42.1503 87.6873L42.0675 87.3385L41.9937 86.9601L41.8707 86.548L41.8012 86.3899L41.7328 86.2253L41.6869 85.821L41.6671 85.7659L41.4586 85.2893L41.3707 85.027L41.3565 84.8978L41.3895 84.7245L41.4562 84.6174L41.6027 84.5198L41.6416 84.4422L41.6308 84.3277L41.5812 84.2354L41.4878 84.0839L41.3219 83.7461L41.0774 83.216L40.9003 82.8224L40.7873 82.6285L40.7398 82.5204L40.6943 82.4177L40.5541 82.1388L40.6367 82.09L40.6614 82.0786L41.9633 81.4253L42.2846 81.2658L43.1473 80.8401L43.1712 80.8257L43.1605 80.818L42.9033 80.7638L42.646 80.7292L42.5857 80.7072L42.448 80.6719L42.2365 80.5876L42.1415 80.5345L42.0624 80.4808L41.8749 80.3364L41.7363 80.2243L41.5849 80.0993L41.4477 79.9929L41.4303 79.9776L41.389 79.9392L41.3557 79.915L41.3192 79.8881L41.2717 79.8526L41.1429 79.8936L41.0838 79.8081L41.0666 79.784L41.0003 79.6751L40.9482 79.5841L40.9261 79.546L40.8996 79.4889L40.8583 79.4129L40.8532 79.3922L40.7815 79.2564L40.7198 79.1513L40.6942 79.1079L40.6666 79.0601L40.6591 79.0408L40.6022 78.9651L40.5609 78.901L40.4967 78.8149L40.4458 78.7343L40.3889 78.6597L40.382 78.6444L40.3091 78.5501L40.2221 78.4399L40.1711 78.3836L40.1623 78.3735L40.1259 78.3407L40.0373 78.2651L40.0117 78.23L39.9024 78.1465L39.8235 78.0684L39.7269 77.9821L39.6871 77.953L39.4469 77.7232L39.3655 77.6375L39.1445 77.6636L39.0596 77.5709L38.9384 77.4466L38.8684 77.3709L38.8515 77.3572L38.7069 77.2101L38.5519 77.0565L38.474 76.9738L38.4183 76.9084L38.27 76.7123L38.1767 76.5918L38.0653 76.4562L38.0577 76.4475L37.9323 76.2644L37.9058 76.2144L37.8772 76.1678L37.8715 76.1574L37.7211 75.9241L37.7174 75.9192L37.6905 75.8804L37.6245 75.7853L37.5733 75.7272L37.4982 75.6064L37.3649 75.4043L37.3547 75.3872L37.2074 75.1406L37.0407 74.7331L36.9788 74.5885L36.947 74.542L36.8697 74.3858L36.7969 74.2381L36.7428 74.0903L36.7331 74.0391L36.7295 73.992L36.7345 73.9227L36.7656 73.8137L36.8076 73.7412L36.888 73.6051L36.9181 73.5455L37.0394 73.2981L37.1345 73.1492L37.24 73.0342L37.2905 72.9311L37.3399 72.8111L37.3858 72.6984L37.4204 72.6019L37.4302 72.5751L37.4031 72.57L37.4961 72.2315L37.5776 72.0848L37.5869 71.643L37.5899 71.4085L37.5901 71.4044L37.5904 71.385L37.5843 71.2325L37.5861 71.2182L37.8586 71.1278L37.8687 71.1244L37.699 70.9986L37.4365 70.7949L37.3635 70.7482L36.7119 70.3153L36.4498 70.172L36.4221 70.1511L36.3213 70.075L36.232 70.0091L36.1314 69.935L36.0061 69.8639L35.9636 69.8241L35.901 69.7659L35.7737 69.6804L35.6616 69.6302L35.587 69.5913L35.4971 69.5286L35.2434 69.3421L35.0702 69.2395L34.8985 69.1337L34.7095 69.0044L34.5975 68.9291L34.4646 68.7916L34.3103 68.6242L34.2864 68.5993L34.2473 68.5277L34.1685 68.4289L34.0618 68.3137L34.0363 68.274L33.803 67.9803L33.6542 67.7796L33.5676 67.6851L33.503 67.6101L33.3546 67.4396L33.2989 67.3563L33.1512 67.1754L32.8592 66.8351L32.8219 66.785L32.7809 66.7147L32.7556 66.6816L32.6893 66.6144L32.5561 66.463L32.3767 66.2442L32.2545 66.0894L32.0975 65.8993L32.0669 65.8675L32.0367 65.8263L31.9178 65.6625L31.8435 65.528L31.8231 65.4803L31.8113 65.212L31.8093 65.1993L31.7239 64.7607L31.6941 64.4784L31.7043 64.4353L31.771 64.3341L31.9758 64.0969L32.1869 63.8335L32.2776 63.6549L32.4037 63.4792L32.426 63.3667L32.4296 63.2666L32.4059 63.2119L32.2605 63.0869L31.9107 62.8794L31.4969 62.6312L31.2491 62.4738L31.0979 62.402L30.8525 62.2348L30.7459 62.1673L30.14 61.8223L29.9618 61.7027L29.7717 61.5726L29.6955 61.5334L29.5497 61.467L29.4427 61.4339L29.3474 61.4247L28.9238 61.3428L28.356 61.2402L28.3324 61.2357L28.3741 61.1124L28.397 61.0425L28.4292 60.9534L28.475 60.8257L28.4992 60.7484L28.5343 60.6617L28.5627 60.5836L28.6176 60.4435L28.6473 60.37L28.5254 60.3364L28.4815 60.3241L28.3513 60.3046L28.2941 60.2948L28.3097 60.2785L28.3446 60.1988L28.2119 60.1472L28.2263 60.1039L28.2215 60.0644L28.2336 60.0117L28.252 59.9668L28.3242 59.8259L28.3362 59.7797L28.3318 59.7374L28.2722 59.6795L28.2337 59.6042L28.2321 59.6008L28.1697 59.4724L28.1446 59.4288L28.125 59.3435L28.1068 59.2622L28.1394 59.2495L28.224 59.3063L28.3519 59.3839L28.4826 59.4246L28.5237 59.4367L28.65 59.4447L28.702 59.4397L28.7631 59.4646L28.8345 59.4584L28.9045 59.4738L28.9227 59.4777L28.9969 59.2981L29.0621 59.1441L29.1077 59.043L29.1691 58.9079L29.1873 58.8647L29.2244 58.8122L29.2583 58.7826L29.2752 58.7891L29.2606 58.8008L29.3856 58.8281L29.9171 58.9563L29.8646 59.0527L30.1258 59.1138L30.2032 59.1271L30.4882 59.1755L30.6072 59.1922L30.7681 59.2383L30.8408 59.2567L31.142 59.3804L31.1981 59.405L31.2785 59.4489L31.4183 59.5159L31.7205 59.6462L31.811 59.6772L32.1536 59.834L32.3485 59.9179L32.4969 59.9705L32.547 59.9892L32.5672 59.9969L32.7336 60.0585L32.9343 60.1492L33.1517 60.2434L33.3138 60.2879L33.3302 60.2907L33.3844 60.3074L33.51 60.3429L33.5812 60.3568L33.6523 60.3705L33.8299 60.4231L33.9395 60.4633L33.8294 60.6468L33.8608 60.6553L33.8611 60.6549L34.1574 60.7324L34.1884 60.6841L34.2006 60.6548L34.3002 60.466L34.3179 60.4321L34.327 60.4084L34.3406 60.3776L34.5716 60.3963L34.6717 60.4045L34.7087 60.4073L34.8766 60.4016L35.0008 60.3968L35.1523 60.408L35.2881 60.4385L35.3086 60.4432L35.4229 60.4515L35.4806 60.4557L35.4936 60.4412L35.527 60.4404L35.5557 60.4472L35.5614 60.4576L35.5708 60.4591L35.8584 60.5051L35.8758 60.4923L35.9882 60.4916L36.1262 60.5151L36.1496 60.4755L36.2432 60.4912L36.4909 60.5522L36.5594 60.5517L36.584 60.6111L36.7071 60.6295L36.7845 60.6445L36.8137 60.6492L36.8321 60.6336L36.8843 60.6436L37.3772 60.7411L37.3887 60.7434L37.5768 60.7941L37.7773 60.8483L37.8463 60.8667L37.8587 60.8917L37.8981 60.9688L37.891 60.9926L38.0614 61.0731L38.1499 61.1152L38.2943 61.1443L38.3232 61.1501L38.3462 61.1548L38.5158 61.1996L38.519 61.2005L38.5466 61.2191L38.0963 61.8413L37.7773 62.2682L37.2833 62.9487L37.3911 62.9752L37.6229 62.7883L37.6311 62.7896L37.6931 62.7901L37.998 62.5743L38.1229 62.5956L38.1394 62.5685L38.1655 62.5254L38.2165 62.506L38.3066 62.4866L38.4159 62.4403L38.4847 62.3697L38.5057 62.4023L38.5772 62.4169L38.8511 62.393L38.9385 62.4159L38.9816 62.4008L39.0942 62.3715L39.1768 62.3382L39.2172 62.338L39.3399 62.3245L39.4111 62.3097L39.5512 62.2596L39.6925 62.2026L39.7111 62.1888L39.7116 62.2065L39.7164 62.4338L39.7193 62.6734L39.7199 62.6959L39.7265 62.8731L39.7568 62.9L39.9941 63.0969L40.0139 63.1132L40.0658 63.1564L40.3 63.3381L40.3113 63.3475L40.3391 63.3691L40.3603 63.3863L40.4918 63.4914L40.8114 63.7596L40.9824 63.4664L41.0064 63.4259L41.3085 62.9192L41.4898 62.9509L41.5299 62.9564L41.5682 62.9667L41.7458 63.0157L41.7628 63.0277L41.8364 63.0503L41.9511 63.082L42.0248 63.1024L42.0475 63.1098L42.1397 63.139L42.2891 63.1857L42.4031 63.2098L42.4758 63.2354L42.5074 63.2459L42.6188 63.2814L42.726 63.3153L42.9147 63.3753L42.7195 63.7351L42.9391 63.7956L42.9752 63.8044L43.1722 63.8521L43.2613 63.8685L43.4115 63.9068L43.4269 63.9106L43.6059 63.9539L43.6167 63.957L43.753 63.9961L43.8394 64.0208L43.8775 64.0297L43.8914 64.0337L44.058 64.0782L44.092 64.0862L44.3537 64.1487L44.384 64.1554L44.6436 64.2118L44.6234 64.265L44.5934 64.3431L44.5732 64.3962L44.5694 64.4062L44.553 64.4554L44.5325 64.5179L44.5447 64.5207L44.5733 64.4482L44.6245 64.4141L44.6571 64.4324L44.6649 64.434L45.0726 64.5297L45.3707 64.5989L45.5518 64.618L45.5645 64.6206L45.5626 64.6276L45.8367 64.686L45.8651 64.6884L47.9074 65.1598L48.0028 65.1L48.0297 65.0751L48.0412 65.0632L48.0287 65.0602L48.0297 65.0591L48.0377 65.0609L48.0777 65.0061L48.188 64.8532L48.2429 64.7774L48.3008 64.693L48.3995 64.5555L48.4766 64.4422L48.5695 64.3086L48.6171 64.2435L48.6689 64.1758L48.7014 64.1315L48.8558 64.1458L49.3654 64.2867L49.4319 64.3021L49.8677 64.4024L49.9195 64.3925L49.6401 64.6881L49.7561 64.7565L49.7822 64.7722L49.8018 64.7835L49.8417 64.8074L49.9343 64.8642L49.9495 64.8732L49.9922 64.8971L50.041 64.9264L50.0786 64.9516L50.1196 64.9797L50.1315 64.9871L50.2104 65.0372L50.2482 65.0595L50.257 65.0637L50.287 65.0778L50.3058 65.0744L50.3641 65.104L50.4302 65.1413L50.4979 65.185L50.5395 65.2307L50.5407 65.2316L50.6061 65.2743L50.642 65.2901L50.7416 65.3355L50.7795 65.3544L50.8211 65.371L50.8511 65.3894L50.8734 65.4031L51.0562 65.5224L52.1333 64.8534L52.1421 64.8569L52.2517 64.9216L52.3237 64.9604L52.479 65.0438L52.577 65.0977L52.6874 65.1588L52.7578 65.1811L52.7311 65.2668L52.8131 65.2766L52.981 65.297L53.0123 65.3007L53.7772 65.4135L53.7936 65.418L53.8508 65.4349L53.9177 65.4429L54.0007 65.4564L54.0642 65.4669L54.1527 65.4834L54.8813 65.6045L55.0208 65.6232L55.0576 65.6282L55.1681 65.6405L55.281 65.6638L55.3855 65.6893L55.5797 65.7119L55.5816 65.712L55.7192 65.7318L55.8382 65.7551L55.9178 65.7704L55.9704 65.7777L56.0922 65.794L56.2108 65.8087L56.2928 65.8191L56.3725 65.8381L56.4382 65.853L56.6277 65.9153L56.7348 65.9563L56.9068 66.0176L57.0503 66.0734L57.1133 66.0902L57.1495 66.1002L57.1873 66.113L57.3392 66.1745L57.3747 66.1883L57.4644 66.2223L57.6342 66.2815L57.7747 66.3247L57.9529 66.3835L58.0682 66.4181L58.1109 66.4313L58.123 66.4424L58.1482 66.4653L58.1514 66.4716L58.1674 66.5026L58.2355 66.6359L58.3594 66.8246L58.3606 66.8266L58.4248 66.8542L58.5354 66.885L58.6157 66.9133L58.8106 66.9626L58.8883 66.988L59.1613 67.0796L59.2368 67.1017L59.3072 67.1228L59.3132 67.1244L59.36 67.1392L59.3777 67.1445L59.5228 67.1943L59.6222 67.2277L59.7069 67.2536L59.7994 67.2805L60.241 67.4151L60.3367 67.4436L60.6001 67.5633L60.63 67.5494L60.6832 67.5095L60.7876 67.4169L61.0645 67.4999L61.1807 67.5308L61.2865 67.5549L61.4083 67.5848L61.5347 67.6262L61.6008 67.6551L61.6927 67.7014L61.7167 67.7127L61.7839 67.7435L61.9718 67.834L62.0709 67.8785L62.1346 67.9183L62.1546 67.9293L62.2095 67.9585L62.3328 68.0246L62.3689 68.0435L62.3918 68.0565L62.4238 68.0744L62.4717 68.0982L62.5295 68.1317L62.5391 68.1364L62.6423 68.1956L62.7116 68.2343L62.7816 68.273L62.8009 68.2842L62.9049 68.3361L62.9628 68.3751L62.9986 68.3842L63.0236 68.3593L63.0858 68.2974L63.1733 68.1941L63.3078 68.0491L63.4187 67.9299L63.435 67.9123L63.4851 67.8589L63.5281 67.8128L63.5401 67.7862L63.5659 67.7792L63.6461 67.7931L63.8381 67.8124L63.9075 67.8203L64.0585 67.8348L64.2457 67.8574L64.4234 67.8778L64.4439 67.8803L64.599 67.8945L64.7036 67.9028L64.9297 67.9319L65.0547 67.9527L65.1817 67.9504L66.1232 67.8296L66.6032 67.7969L67.1629 67.0849L68.1619 66.2091L69.3593 65.1716L69.6107 64.7149L70.161 63.4442L70.7824 62.565L70.8636 62.4635L70.9019 62.4123L70.9633 62.3338L71.3286 62.09L71.4451 61.9687L71.7601 61.4682L71.8649 61.2806L72.1446 60.729L72.4341 60.1924L72.6485 59.8133L72.8686 59.4016L73.0082 59.1731L73.0851 59.0651L73.88 59.1771L80.1575 59.7094L80.4309 59.7119L80.4281 59.4425L80.4158 59.2376L80.3931 58.9256L80.3829 58.4576L80.3528 58.1294L80.3146 57.63L80.2977 57.5156L80.2015 57.2115L80.1042 56.8739L80.0428 56.6729L79.9115 56.406L79.8824 56.3477L79.6926 55.9134L79.7431 55.6625L79.7886 55.4845L79.834 55.176L79.9487 54.774L80.0942 54.1508L80.101 53.9486L80.1553 53.6329L80.2618 53.2231L80.3022 53.078L80.3424 52.6927L80.3785 52.4L80.3058 51.98L80.1773 51.5922L79.9809 51.2523L79.9286 51.1588L79.8479 51.076L79.6664 50.9237L79.4323 50.751L79.2126 50.5772L79.0096 50.4128L78.9332 50.3305L78.8874 50.177L78.8106 50.0063L78.72 49.9031L78.5502 49.7534L78.4089 49.6495L78.4044 49.6524L78.3984 49.6478L78.3486 49.5894L78.3647 49.5269L78.4228 49.3931L78.6425 49.0265L78.6589 48.9987L78.9461 48.4981L79.0872 48.2229L79.3232 47.8219L79.3483 47.7751L79.389 47.7404L79.5296 47.6454L79.8 47.488L79.8138 47.48L79.9481 47.4081L80.1369 47.6451L80.1261 48.0335L80.1089 48.2079L80.1208 48.267L80.2284 48.4365L80.2446 48.4623L80.6424 48.6972L80.8789 48.747L81.048 48.782L81.3849 48.9689L81.5009 49.0862L81.5942 49.3943L81.7058 49.5979L82.3299 50.3633L83.2642 51.6784L84.0295 52.7662L84.1742 53.1201L84.456 53.3767L84.5022 53.4185L84.6868 53.6664L85.0765 54.3631L86.0288 55.695L86.1179 55.9676L86.5388 57.0826L86.618 57.3134L86.9295 57.7013L87.0062 57.7975L88 58.7719L88.0901 58.8598L88.5421 59.2468L89.3293 59.0111L90.3994 58.7259L92.4673 58.2945L93.7121 58.0486L94.1737 58.3193L94.4682 58.2644L95.4597 57.8704L96.1433 57.5264L96.3493 57.4675L96.5927 57.6334L96.5326 57.6544L96.7276 57.7776L96.9621 57.9482L97.1189 58.0762L97.1473 58.0881L97.5246 58.2408L97.8376 58.2676L97.9354 58.3213L98.3954 58.4604L99.0106 58.3338L99.4015 58.3098L99.6257 58.3048L99.9849 58.3453L100.235 58.3199L100.409 58.2913L100.605 58.286L101.122 58.3012L101.388 58.3323L101.495 58.3447L101.519 58.3474L101.522 58.348L101.681 58.4051L101.93 58.5525L102.444 58.7141L102.748 58.7664L102.748 58.7667L103.265 58.8292L103.57 58.8713L103.84 58.9533L104.042 59.029L104.349 59.1572L104.546 59.2271L104.796 59.2915L105.006 59.3205L105.445 59.2804L105.542 59.2672L106.63 58.865L106.992 58.8668L108.124 59.1601L108.496 59.397L108.966 59.6748L109.617 59.9792L110.129 59.9232L110.449 59.9392L110.717 60.0668L111.179 60.2604L110.847 60.8222L109.958 61.7491L108.707 62.8176L108.101 63.3849L107.762 63.9172L107.561 64.2305L106.891 66.0425L106.873 66.9836L108.496 67.0822L109.498 67.3128L109.901 67.4459L110.682 67.7046L111.876 68.4274L112.894 69.2058L113.237 69.5944L113.712 70.1302L113.777 70.2077L113.821 70.2635L114.663 70.9865L115.313 71.5958L115.35 71.6301L116.075 72.4491L116.174 72.5329L116.533 73.2429L116.764 73.825L116.936 74.8088L117.228 75.6341L117.676 76.1586L118.319 76.698L118.537 76.7859L119.872 77.2652L121.244 77.6708L121.787 77.9187L122.351 78.3175L123.073 78.5098L124.356 78.7301L124.639 78.4056L126.117 78.8715L126.596 79.0833L127.398 79.4804L127.76 79.8652L128.186 80.3527L128.871 81.3865L129.169 82.1794L129.149 83.7187L129.144 83.774L129.376 84.5451L129.49 84.878L129.487 84.8982L129.548 85.1159L129.936 86.067L130.298 86.5728L130.993 87.4438L131.616 88.0115L132.097 88.6875L131.549 88.9502L130.799 89.2467L130.614 89.3425L130.502 89.3757L130.224 89.4683L130.069 89.5428L130.078 89.5841L130.126 89.7321L129.858 89.7183L129.621 89.7271L129.437 89.7541L129.31 89.7625L129.179 89.7968L128.825 90.2078L128.256 91.2658L127.933 91.8119L127.702 91.8309L127.793 92.0476L128.329 92.3914L128.424 92.5311L128.499 92.7464L128.554 93.2708L128.54 93.9635L128.562 94.1837L128.613 94.4653L128.688 95.1361L128.762 95.5776L128.881 95.7878L129.118 95.9727L129.353 96.0779L129.606 96.5137L129.637 96.8675L129.714 97.0343L129.777 97.196L128.984 97.3006L128.968 97.405L128.953 97.4764L128.915 97.8634L128.897 98.1122L128.809 98.4477L128.787 98.733L128.796 98.8395L128.765 98.9469L128.612 99.2037L128.523 99.281L128.196 99.4476L128.108 99.4909L127.985 99.5571L127.852 99.633L127.735 99.7164L127.674 99.766L127.419 99.9801L127.425 99.9825L127.369 100.016L126.967 99.8416L126.604 99.6398L126.533 99.6822L126.425 99.7094L126.322 99.6959L126.28 99.686L126.238 99.6731L126.154 99.6429L126.06 99.5993L125.692 99.4299L125.662 99.4308L125.612 99.4378L125.215 99.5321L125.027 99.6996L124.664 100.004L124.326 100.328L124.051 100.685L123.919 100.938L123.9 101.043L123.882 101.053L123.214 101.604L122.693 101.626L122.476 101.669L122.378 101.726L122.378 101.765L122.376 102.028L122.107 102.418L121.997 102.595L121.899 102.686L121.816 102.779L121.685 103.097L121.601 103.159L120.975 103.281L120.772 103.207L120.688 103.143L120.576 103.225L120.292 103.513L119.916 103.938L119.88 104.043L119.836 104.35L119.816 104.428L119.73 104.49L119.591 104.547L119.488 104.562L119.362 104.583L119.232 104.62L119.111 104.668L119.01 104.72L118.913 104.792L118.832 104.885L118.783 104.964L118.728 105.158L118.684 105.23L118.637 105.31L118.595 105.385L118.584 105.461L118.577 105.504L118.502 106.221L118.387 107.088L117.854 106.941L117.434 106.871L116.608 106.788L112.911 106.155L99.1327 104.778L91.057 103.284L84.53 102.094L81.8662 101.652L72.5325 100.116L72.2387 100.066L71.5192 100.016L64.4046 99.5032L64.3696 99.6977L63.9738 99.6714L61.8555 99.5857L61.6967 99.5821L56.7563 99.479L56.5206 99.4863L55.488 99.5197L54.4554 99.5596L51.3626 99.7899L49.3557 100.051L49.1333 100.08L46.7889 100.559L46.6207 100.614L45.4163 101.001L44.2472 101.397L42.6947 101.938L40.7813 102.596L39.7841 102.938Z" fill="#99C54A"/>
<path fill-rule="evenodd" clip-rule="evenodd" d="M39.7841 86.9376L38.5945 87.3264L37.9707 87.5027L37.8699 85.5565L37.8384 85.3647L37.8257 85.2025L37.3113 84.5753L37.1147 84.3153L37.1212 84.2598L37.3126 84.2006L37.5318 84.1615L37.5637 84.1545L37.7842 84.1067L37.9982 84.0544L38.0282 83.9911L38.0341 83.9063L37.9982 83.8119L37.9679 83.7619L37.9323 83.7233L37.8687 83.6658L37.8443 83.6345L37.8362 83.581L37.8557 83.5312L37.894 83.4682L37.9604 83.3378L37.9656 83.1934L37.9189 83.0991L37.8554 82.9899L37.7786 82.8829L37.7511 82.8311L37.6769 82.7331L37.6327 82.6628L37.6716 82.5964L37.741 82.521L37.9202 82.4158L38.0024 82.3664L38.1299 82.2005L38.1494 82.1655L38.122 82.1434L38.0365 82.0898L37.904 82.0229L37.813 81.9766L37.7828 81.9415L37.7746 81.8768L37.7857 81.7992L37.7858 81.7623L37.7556 81.7421L37.7087 81.7365L37.524 81.7603L37.4465 81.7674L37.411 81.7435L37.3836 81.703L37.4028 81.6271L37.4638 81.4979L37.5738 81.3598L37.696 80.9537L37.8232 80.7655L37.8566 80.6992L37.8511 80.6696L37.763 80.6178L37.6558 80.5198L37.5458 80.287L37.4559 79.9926L37.416 79.8474L37.3861 79.805L37.3447 79.7921L37.0604 79.7712L36.9998 79.7712L36.9668 79.738L36.9503 79.6936L36.9669 79.6493L37.1549 79.4835L37.2521 79.323L37.2741 79.2382L37.2424 79.1014L37.2065 79.0737L37.135 79.0698L36.8866 79.0805L36.8341 79.0786L36.7983 79.0509L36.7243 78.9417L36.5177 78.7255L36.4048 78.5942L36.3856 78.5408L36.3885 78.4909L36.4437 78.4356L36.5242 78.3598L36.5436 78.3174L36.5358 78.1162L36.5442 78.0479L36.7408 77.7903L36.9015 77.6021L37.0006 77.5471L37.5859 77.3522L37.6553 77.3207L37.8087 77.1187L38.243 76.7591L38.2873 76.7037L38.3981 76.4308L38.4452 76.3772L38.5115 76.3478L38.6689 76.3166L39.116 76.2581L39.2954 76.157L39.5138 76.0445L39.6984 75.9849L39.9495 75.9391L40.5706 75.8016L40.8578 75.7097L40.9214 75.6636L40.9492 75.575L41.0324 75.3979L41.0628 75.3629L41.1017 75.3444L42.0475 75.1014L42.1969 75.0498L42.3126 74.9542L42.6035 74.6091L42.7115 74.3933L42.7392 74.3344L42.729 74.2233L42.7201 74.1309L42.6186 73.8262L42.5693 73.6233L42.5533 73.5595L42.4504 73.1383L42.4245 73.0339L42.3716 72.6421L42.2544 72.0307L42.1503 71.6873L42.0675 71.3385L41.9937 70.9601L41.8707 70.548L41.8012 70.3899L41.7328 70.2253L41.6869 69.821L41.6671 69.7659L41.4586 69.2893L41.3707 69.027L41.3565 68.8978L41.3895 68.7245L41.4562 68.6174L41.6027 68.5198L41.6416 68.4422L41.6308 68.3277L41.5812 68.2354L41.4878 68.0839L41.3219 67.7461L41.0774 67.216L40.9003 66.8224L40.7873 66.6285L40.7398 66.5204L40.6943 66.4177L40.5541 66.1388L40.6367 66.09L40.6614 66.0786L41.9633 65.4253L42.2846 65.2658L43.1473 64.8401L43.1712 64.8257L43.1605 64.818L42.9033 64.7638L42.646 64.7292L42.5857 64.7072L42.448 64.6719L42.2365 64.5876L42.1415 64.5345L42.0624 64.4808L41.8749 64.3364L41.7363 64.2243L41.5849 64.0993L41.4477 63.9929L41.4303 63.9776L41.389 63.9392L41.3557 63.915L41.3192 63.8881L41.2717 63.8526L41.1429 63.8936L41.0838 63.8081L41.0666 63.784L41.0003 63.6751L40.9482 63.5841L40.9261 63.546L40.8996 63.4889L40.8583 63.4129L40.8532 63.3922L40.7815 63.2564L40.7198 63.1513L40.6942 63.1079L40.6666 63.0601L40.6591 63.0408L40.6022 62.9651L40.5609 62.901L40.4967 62.8149L40.4458 62.7343L40.3889 62.6597L40.382 62.6444L40.3091 62.5501L40.2221 62.4399L40.1711 62.3836L40.1623 62.3735L40.1259 62.3407L40.0373 62.2651L40.0117 62.23L39.9024 62.1465L39.8235 62.0684L39.7269 61.9821L39.6871 61.953L39.4469 61.7232L39.3655 61.6375L39.1445 61.6636L39.0596 61.5709L38.9384 61.4466L38.8684 61.3709L38.8515 61.3572L38.7069 61.2101L38.5519 61.0565L38.474 60.9738L38.4183 60.9084L38.27 60.7123L38.1767 60.5918L38.0653 60.4562L38.0577 60.4475L37.9323 60.2644L37.9058 60.2144L37.8772 60.1678L37.8715 60.1574L37.7211 59.9241L37.7174 59.9192L37.6905 59.8804L37.6245 59.7853L37.5733 59.7272L37.4982 59.6064L37.3649 59.4043L37.3547 59.3872L37.2074 59.1406L37.0407 58.7331L36.9788 58.5885L36.947 58.542L36.8697 58.3858L36.7969 58.2381L36.7428 58.0903L36.7331 58.0391L36.7295 57.992L36.7345 57.9227L36.7656 57.8137L36.8076 57.7412L36.888 57.6051L36.9181 57.5455L37.0394 57.2981L37.1345 57.1492L37.24 57.0342L37.2905 56.9311L37.3399 56.8111L37.3858 56.6984L37.4204 56.6019L37.4302 56.5751L37.4031 56.57L37.4961 56.2315L37.5776 56.0848L37.5869 55.643L37.5899 55.4085L37.5901 55.4044L37.5904 55.385L37.5843 55.2325L37.5861 55.2182L37.8586 55.1278L37.8687 55.1244L37.699 54.9986L37.4365 54.7949L37.3635 54.7482L36.7119 54.3153L36.4498 54.172L36.4221 54.1511L36.3213 54.075L36.232 54.0091L36.1314 53.935L36.0061 53.8639L35.9636 53.8241L35.901 53.7659L35.7737 53.6804L35.6616 53.6302L35.587 53.5913L35.4971 53.5286L35.2434 53.3421L35.0702 53.2395L34.8985 53.1337L34.7095 53.0044L34.5975 52.9291L34.4646 52.7916L34.3103 52.6242L34.2864 52.5993L34.2473 52.5277L34.1685 52.4289L34.0618 52.3137L34.0363 52.274L33.803 51.9803L33.6542 51.7796L33.5676 51.6851L33.503 51.6101L33.3546 51.4396L33.2989 51.3563L33.1512 51.1754L32.8592 50.8351L32.8219 50.785L32.7809 50.7147L32.7556 50.6816L32.6893 50.6144L32.5561 50.463L32.3767 50.2442L32.2545 50.0894L32.0975 49.8993L32.0669 49.8675L32.0367 49.8263L31.9178 49.6625L31.8435 49.528L31.8231 49.4803L31.8113 49.212L31.8093 49.1993L31.7239 48.7607L31.6941 48.4784L31.7043 48.4353L31.771 48.3341L31.9758 48.0969L32.1869 47.8335L32.2776 47.6549L32.4037 47.4792L32.426 47.3667L32.4296 47.2666L32.4059 47.2119L32.2605 47.0869L31.9107 46.8794L31.4969 46.6312L31.2491 46.4738L31.0979 46.402L30.8525 46.2348L30.7459 46.1673L30.14 45.8223L29.9618 45.7027L29.7717 45.5726L29.6955 45.5334L29.5497 45.467L29.4427 45.4339L29.3474 45.4247L28.9238 45.3428L28.356 45.2402L28.3324 45.2357L28.3741 45.1124L28.397 45.0425L28.4292 44.9534L28.475 44.8257L28.4992 44.7484L28.5343 44.6617L28.5627 44.5836L28.6176 44.4435L28.6473 44.37L28.5254 44.3364L28.4815 44.3241L28.3513 44.3046L28.2941 44.2948L28.3097 44.2785L28.3446 44.1988L28.2119 44.1472L28.2263 44.1039L28.2215 44.0644L28.2336 44.0117L28.252 43.9668L28.3242 43.8259L28.3362 43.7797L28.3318 43.7374L28.2722 43.6795L28.2337 43.6042L28.2321 43.6008L28.1697 43.4724L28.1446 43.4288L28.125 43.3435L28.1068 43.2622L28.1394 43.2495L28.224 43.3063L28.3519 43.3839L28.4826 43.4246L28.5237 43.4367L28.65 43.4447L28.702 43.4397L28.7631 43.4646L28.8345 43.4584L28.9045 43.4738L28.9227 43.4777L28.9969 43.2981L29.0621 43.1441L29.1077 43.043L29.1691 42.9079L29.1873 42.8647L29.2244 42.8122L29.2583 42.7826L29.2752 42.7891L29.2606 42.8008L29.3856 42.8281L29.9171 42.9563L29.8646 43.0527L30.1258 43.1138L30.2032 43.1271L30.4882 43.1755L30.6072 43.1922L30.7681 43.2383L30.8408 43.2567L31.142 43.3804L31.1981 43.405L31.2785 43.4489L31.4183 43.5159L31.7205 43.6462L31.811 43.6772L32.1536 43.834L32.3485 43.9179L32.4969 43.9705L32.547 43.9892L32.5672 43.9969L32.7336 44.0585L32.9343 44.1492L33.1517 44.2434L33.3138 44.2879L33.3302 44.2907L33.3844 44.3074L33.51 44.3429L33.5812 44.3568L33.6523 44.3705L33.8299 44.4231L33.9395 44.4633L33.8294 44.6468L33.8608 44.6553L33.8611 44.6549L34.1574 44.7324L34.1884 44.6841L34.2006 44.6548L34.3002 44.466L34.3179 44.4321L34.327 44.4084L34.3406 44.3776L34.5716 44.3963L34.6717 44.4045L34.7087 44.4073L34.8766 44.4016L35.0008 44.3968L35.1523 44.408L35.2881 44.4385L35.3086 44.4432L35.4229 44.4515L35.4806 44.4557L35.4936 44.4412L35.527 44.4404L35.5557 44.4472L35.5614 44.4576L35.5708 44.4591L35.8584 44.5051L35.8758 44.4923L35.9882 44.4916L36.1262 44.5151L36.1496 44.4755L36.2432 44.4912L36.4909 44.5522L36.5594 44.5517L36.584 44.6111L36.7071 44.6295L36.7845 44.6445L36.8137 44.6492L36.8321 44.6336L36.8843 44.6436L37.3772 44.7411L37.3887 44.7434L37.5768 44.7941L37.7773 44.8483L37.8463 44.8667L37.8587 44.8917L37.8981 44.9688L37.891 44.9926L38.0614 45.0731L38.1499 45.1152L38.2943 45.1443L38.3232 45.1501L38.3462 45.1548L38.5158 45.1996L38.519 45.2005L38.5466 45.2191L38.0963 45.8413L37.7773 46.2682L37.2833 46.9487L37.3911 46.9752L37.6229 46.7883L37.6311 46.7896L37.6931 46.7901L37.998 46.5743L38.1229 46.5956L38.1394 46.5685L38.1655 46.5254L38.2165 46.506L38.3066 46.4866L38.4159 46.4403L38.4847 46.3697L38.5057 46.4023L38.5772 46.4169L38.8511 46.393L38.9385 46.4159L38.9816 46.4008L39.0942 46.3715L39.1768 46.3382L39.2172 46.338L39.3399 46.3245L39.4111 46.3097L39.5512 46.2596L39.6925 46.2026L39.7111 46.1888L39.7116 46.2065L39.7164 46.4338L39.7193 46.6734L39.7199 46.6959L39.7265 46.8731L39.7568 46.9L39.9941 47.0969L40.0139 47.1132L40.0658 47.1564L40.3 47.3381L40.3113 47.3475L40.3391 47.3691L40.3603 47.3863L40.4918 47.4914L40.8114 47.7596L40.9824 47.4664L41.0064 47.4259L41.3085 46.9192L41.4898 46.9509L41.5299 46.9564L41.5682 46.9667L41.7458 47.0157L41.7628 47.0277L41.8364 47.0503L41.9511 47.082L42.0248 47.1024L42.0475 47.1098L42.1397 47.139L42.2891 47.1857L42.4031 47.2098L42.4758 47.2354L42.5074 47.2459L42.6188 47.2814L42.726 47.3153L42.9147 47.3753L42.7195 47.7351L42.9391 47.7956L42.9752 47.8044L43.1722 47.8521L43.2613 47.8685L43.4115 47.9068L43.4269 47.9106L43.6059 47.9539L43.6167 47.957L43.753 47.9961L43.8394 48.0208L43.8775 48.0297L43.8914 48.0337L44.058 48.0782L44.092 48.0862L44.3537 48.1487L44.384 48.1554L44.6436 48.2118L44.6234 48.265L44.5934 48.3431L44.5732 48.3962L44.5694 48.4062L44.553 48.4554L44.5325 48.5179L44.5447 48.5207L44.5733 48.4482L44.6245 48.4141L44.6571 48.4324L44.6649 48.434L45.0726 48.5297L45.3707 48.5989L45.5518 48.618L45.5645 48.6206L45.5626 48.6276L45.8367 48.686L45.8651 48.6884L47.9074 49.1598L48.0028 49.1L48.0297 49.0751L48.0412 49.0632L48.0287 49.0602L48.0297 49.0591L48.0377 49.0609L48.0777 49.0061L48.188 48.8532L48.2429 48.7774L48.3008 48.693L48.3995 48.5555L48.4766 48.4422L48.5695 48.3086L48.6171 48.2435L48.6689 48.1758L48.7014 48.1315L48.8558 48.1458L49.3654 48.2867L49.4319 48.3021L49.8677 48.4024L49.9195 48.3925L49.6401 48.6881L49.7561 48.7565L49.7822 48.7722L49.8018 48.7835L49.8417 48.8074L49.9343 48.8642L49.9495 48.8732L49.9922 48.8971L50.041 48.9264L50.0786 48.9516L50.1196 48.9797L50.1315 48.9871L50.2104 49.0372L50.2482 49.0595L50.257 49.0637L50.287 49.0778L50.3058 49.0744L50.3641 49.104L50.4302 49.1413L50.4979 49.185L50.5395 49.2307L50.5407 49.2316L50.6061 49.2743L50.642 49.2901L50.7416 49.3355L50.7795 49.3544L50.8211 49.371L50.8511 49.3894L50.8734 49.4031L51.0562 49.5224L52.1333 48.8534L52.1421 48.8569L52.2517 48.9216L52.3237 48.9604L52.479 49.0438L52.577 49.0977L52.6874 49.1588L52.7578 49.1811L52.7311 49.2668L52.8131 49.2766L52.981 49.297L53.0123 49.3007L53.7772 49.4135L53.7936 49.418L53.8508 49.4349L53.9177 49.4429L54.0007 49.4564L54.0642 49.4669L54.1527 49.4834L54.8813 49.6045L55.0208 49.6232L55.0576 49.6282L55.1681 49.6405L55.281 49.6638L55.3855 49.6893L55.5797 49.7119L55.5816 49.712L55.7192 49.7318L55.8382 49.7551L55.9178 49.7704L55.9704 49.7777L56.0922 49.794L56.2108 49.8087L56.2928 49.8191L56.3725 49.8381L56.4382 49.853L56.6277 49.9153L56.7348 49.9563L56.9068 50.0176L57.0503 50.0734L57.1133 50.0902L57.1495 50.1002L57.1873 50.113L57.3392 50.1745L57.3747 50.1883L57.4644 50.2223L57.6342 50.2815L57.7747 50.3247L57.9529 50.3835L58.0682 50.4181L58.1109 50.4313L58.123 50.4424L58.1482 50.4653L58.1514 50.4716L58.1674 50.5026L58.2355 50.6359L58.3594 50.8246L58.3606 50.8266L58.4248 50.8542L58.5354 50.885L58.6157 50.9133L58.8106 50.9626L58.8883 50.988L59.1613 51.0796L59.2368 51.1017L59.3072 51.1228L59.3132 51.1244L59.36 51.1392L59.3777 51.1445L59.5228 51.1943L59.6222 51.2277L59.7069 51.2536L59.7994 51.2805L60.241 51.4151L60.3367 51.4436L60.6001 51.5633L60.63 51.5494L60.6832 51.5095L60.7876 51.4169L61.0645 51.4999L61.1807 51.5308L61.2865 51.5549L61.4083 51.5848L61.5347 51.6262L61.6008 51.6551L61.6927 51.7014L61.7167 51.7127L61.7839 51.7435L61.9718 51.834L62.0709 51.8785L62.1346 51.9183L62.1546 51.9293L62.2095 51.9585L62.3328 52.0246L62.3689 52.0435L62.3918 52.0565L62.4238 52.0744L62.4717 52.0982L62.5295 52.1317L62.5391 52.1364L62.6423 52.1956L62.7116 52.2343L62.7816 52.273L62.8009 52.2842L62.9049 52.3361L62.9628 52.3751L62.9986 52.3842L63.0236 52.3593L63.0858 52.2974L63.1733 52.1941L63.3078 52.0491L63.4187 51.9299L63.435 51.9123L63.4851 51.8589L63.5281 51.8128L63.5401 51.7862L63.5659 51.7792L63.6461 51.7931L63.8381 51.8124L63.9075 51.8203L64.0585 51.8348L64.2457 51.8574L64.4234 51.8778L64.4439 51.8803L64.599 51.8945L64.7036 51.9028L64.9297 51.9319L65.0547 51.9527L65.1817 51.9504L66.1232 51.8296L66.6032 51.7969L67.1629 51.0849L68.1619 50.2091L69.3593 49.1716L69.6107 48.7149L70.161 47.4442L70.7824 46.565L70.8636 46.4635L70.9019 46.4123L70.9633 46.3338L71.3286 46.09L71.4451 45.9687L71.7601 45.4682L71.8649 45.2806L72.1446 44.729L72.4341 44.1924L72.6485 43.8133L72.8686 43.4016L73.0082 43.1731L73.0851 43.0651L73.88 43.1771L80.1575 43.7094L80.4309 43.7119L80.4281 43.4425L80.4158 43.2376L80.3931 42.9256L80.3829 42.4576L80.3528 42.1294L80.3146 41.63L80.2977 41.5156L80.2015 41.2115L80.1042 40.8739L80.0428 40.6729L79.9115 40.406L79.8824 40.3477L79.6926 39.9134L79.7431 39.6625L79.7886 39.4845L79.834 39.176L79.9487 38.774L80.0942 38.1508L80.101 37.9486L80.1553 37.6329L80.2618 37.2231L80.3022 37.078L80.3424 36.6927L80.3785 36.4L80.3058 35.98L80.1773 35.5922L79.9809 35.2523L79.9286 35.1588L79.8479 35.076L79.6664 34.9237L79.4323 34.751L79.2126 34.5772L79.0096 34.4128L78.9332 34.3305L78.8874 34.177L78.8106 34.0063L78.72 33.9031L78.5502 33.7534L78.4089 33.6495L78.4044 33.6524L78.3984 33.6478L78.3486 33.5894L78.3647 33.5269L78.4228 33.3931L78.6425 33.0265L78.6589 32.9987L78.9461 32.4981L79.0872 32.2229L79.3232 31.8219L79.3483 31.7751L79.389 31.7404L79.5296 31.6454L79.8 31.488L79.8138 31.48L79.9481 31.4081L80.1369 31.6451L80.1261 32.0335L80.1089 32.2079L80.1208 32.267L80.2284 32.4365L80.2446 32.4623L80.6424 32.6972L80.8789 32.747L81.048 32.782L81.3849 32.9689L81.5009 33.0862L81.5942 33.3943L81.7058 33.5979L82.3299 34.3633L83.2642 35.6784L84.0295 36.7662L84.1742 37.1201L84.456 37.3767L84.5022 37.4185L84.6868 37.6664L85.0765 38.3631L86.0288 39.695L86.1179 39.9676L86.5388 41.0826L86.618 41.3134L86.9295 41.7013L87.0062 41.7975L88 42.7719L88.0901 42.8598L88.5421 43.2468L89.3293 43.0111L90.3994 42.7259L92.4673 42.2945L93.7121 42.0486L94.1737 42.3193L94.4682 42.2644L95.4597 41.8704L96.1433 41.5264L96.3493 41.4675L96.5927 41.6334L96.5326 41.6544L96.7276 41.7776L96.9621 41.9482L97.1189 42.0762L97.1473 42.0881L97.5246 42.2408L97.8376 42.2676L97.9354 42.3213L98.3954 42.4604L99.0106 42.3338L99.4015 42.3098L99.6257 42.3048L99.9849 42.3453L100.235 42.3199L100.409 42.2913L100.605 42.286L101.122 42.3012L101.388 42.3323L101.495 42.3447L101.519 42.3474L101.522 42.348L101.681 42.4051L101.93 42.5525L102.444 42.7141L102.748 42.7664L102.748 42.7667L103.265 42.8292L103.57 42.8713L103.84 42.9533L104.042 43.029L104.349 43.1572L104.546 43.2271L104.796 43.2915L105.006 43.3205L105.445 43.2804L105.542 43.2672L106.63 42.865L106.992 42.8668L108.124 43.1601L108.496 43.397L108.966 43.6748L109.617 43.9792L110.129 43.9232L110.449 43.9392L110.717 44.0668L111.179 44.2604L110.847 44.8222L109.958 45.7491L108.707 46.8176L108.101 47.3849L107.762 47.9172L107.561 48.2305L106.891 50.0425L106.873 50.9836L108.496 51.0822L109.498 51.3128L109.901 51.4459L110.682 51.7046L111.876 52.4274L112.894 53.2058L113.237 53.5944L113.712 54.1302L113.777 54.2077L113.821 54.2635L114.663 54.9865L115.313 55.5958L115.35 55.6301L116.075 56.4491L116.174 56.5329L116.533 57.2429L116.764 57.825L116.936 58.8088L117.228 59.6341L117.676 60.1586L118.319 60.698L118.537 60.7859L119.872 61.2652L121.244 61.6708L121.787 61.9187L122.351 62.3175L123.073 62.5098L124.356 62.7301L124.639 62.4056L126.117 62.8715L126.596 63.0833L127.398 63.4804L127.76 63.8652L128.186 64.3527L128.871 65.3865L129.169 66.1794L129.149 67.7187L129.144 67.774L129.376 68.5451L129.49 68.878L129.487 68.8982L129.548 69.1159L129.936 70.067L130.298 70.5728L130.993 71.4438L131.616 72.0115L132.097 72.6875L131.549 72.9502L130.799 73.2467L130.614 73.3425L130.502 73.3757L130.224 73.4683L130.069 73.5428L130.078 73.5841L130.126 73.7321L129.858 73.7183L129.621 73.7271L129.437 73.7541L129.31 73.7625L129.179 73.7968L128.825 74.2078L128.256 75.2658L127.933 75.8119L127.702 75.8309L127.793 76.0476L128.329 76.3914L128.424 76.5311L128.499 76.7464L128.554 77.2708L128.54 77.9635L128.562 78.1837L128.613 78.4653L128.688 79.1361L128.762 79.5776L128.881 79.7878L129.118 79.9727L129.353 80.0779L129.606 80.5137L129.637 80.8675L129.714 81.0343L129.777 81.196L128.984 81.3006L128.968 81.405L128.953 81.4764L128.915 81.8634L128.897 82.1122L128.809 82.4477L128.787 82.733L128.796 82.8395L128.765 82.9469L128.612 83.2037L128.523 83.281L128.196 83.4476L128.108 83.4909L127.985 83.5571L127.852 83.633L127.735 83.7164L127.674 83.766L127.419 83.9801L127.425 83.9825L127.369 84.0157L126.967 83.8416L126.604 83.6398L126.533 83.6822L126.425 83.7094L126.322 83.6959L126.28 83.686L126.238 83.6731L126.154 83.6429L126.06 83.5993L125.692 83.4299L125.662 83.4308L125.612 83.4378L125.215 83.5321L125.027 83.6996L124.664 84.0043L124.326 84.3283L124.051 84.6849L123.919 84.9379L123.9 85.0432L123.882 85.0533L123.214 85.6039L122.693 85.6256L122.476 85.669L122.378 85.7259L122.378 85.7652L122.376 86.0279L122.107 86.4179L121.997 86.5948L121.899 86.6859L121.816 86.7792L121.685 87.0971L121.601 87.1592L120.975 87.2813L120.772 87.2068L120.688 87.143L120.576 87.2249L120.292 87.5134L119.916 87.9383L119.88 88.0429L119.836 88.35L119.816 88.4279L119.73 88.4896L119.591 88.5468L119.488 88.5615L119.362 88.5833L119.232 88.6197L119.111 88.668L119.01 88.7199L118.913 88.7923L118.832 88.8848L118.783 88.9635L118.728 89.1583L118.684 89.23L118.637 89.3096L118.595 89.3846L118.584 89.4607L118.577 89.5036L118.502 90.2211L118.387 91.0884L117.854 90.9413L117.434 90.8707L116.608 90.7877L112.911 90.1547L99.1327 88.7783L91.057 87.2837L84.53 86.0942L81.8662 85.6521L72.5325 84.1164L72.2387 84.0662L71.5192 84.0162L64.4046 83.5032L64.3696 83.6977L63.9738 83.6714L61.8555 83.5857L61.6967 83.5821L56.7563 83.479L56.5206 83.4863L55.488 83.5197L54.4554 83.5596L51.3626 83.7899L49.3557 84.0513L49.1333 84.0801L46.7889 84.5593L46.6207 84.6138L45.4163 85.0012L44.2472 85.3966L42.6947 85.9376L40.7813 86.5956L39.7841 86.9376Z" fill="#B6E561"/>
<path fill-rule="evenodd" clip-rule="evenodd" d="M39.7841 70.9718L38.5945 71.3606L37.9707 71.5369L37.8699 69.5907L37.8384 69.3989L37.8257 69.2367L37.3113 68.6095L37.1147 68.3495L37.1212 68.294L37.3126 68.2348L37.5318 68.1956L37.5637 68.1887L37.7842 68.1409L37.9982 68.0886L38.0282 68.0252L38.0341 67.9404L37.9982 67.8461L37.9679 67.7961L37.9323 67.7574L37.8687 67.7L37.8443 67.6687L37.8362 67.6152L37.8557 67.5654L37.894 67.5024L37.9604 67.372L37.9656 67.2276L37.9189 67.1333L37.8554 67.024L37.7786 66.9171L37.7511 66.8653L37.6769 66.7673L37.6327 66.697L37.6716 66.6306L37.741 66.5552L37.9202 66.45L38.0024 66.4005L38.1299 66.2347L38.1494 66.1997L38.122 66.1776L38.0365 66.1239L37.904 66.0571L37.813 66.0108L37.7828 65.9757L37.7746 65.911L37.7857 65.8334L37.7858 65.7965L37.7556 65.7762L37.7087 65.7706L37.524 65.7945L37.4465 65.8016L37.411 65.7777L37.3836 65.7371L37.4028 65.6613L37.4638 65.5321L37.5738 65.394L37.696 64.9879L37.8232 64.7996L37.8566 64.7334L37.8511 64.7038L37.763 64.6519L37.6558 64.554L37.5458 64.3212L37.4559 64.0268L37.416 63.8816L37.3861 63.8392L37.3447 63.8263L37.0604 63.8054L36.9998 63.8054L36.9668 63.7721L36.9503 63.7278L36.9669 63.6835L37.1549 63.5177L37.2521 63.3572L37.2741 63.2724L37.2424 63.1356L37.2065 63.1079L37.135 63.1039L36.8866 63.1147L36.8341 63.1128L36.7983 63.0851L36.7243 62.9758L36.5177 62.7596L36.4048 62.6284L36.3856 62.575L36.3885 62.5251L36.4437 62.4698L36.5242 62.394L36.5436 62.3516L36.5358 62.1504L36.5442 62.0821L36.7408 61.8245L36.9015 61.6363L37.0006 61.5813L37.5859 61.3864L37.6553 61.3549L37.8087 61.1529L38.243 60.7933L38.2873 60.7379L38.3981 60.465L38.4452 60.4114L38.5115 60.382L38.6689 60.3507L39.116 60.2923L39.2954 60.1912L39.5138 60.0787L39.6984 60.0191L39.9495 59.9733L40.5706 59.8357L40.8578 59.7438L40.9214 59.6978L40.9492 59.6092L41.0324 59.4321L41.0628 59.3971L41.1017 59.3785L42.0475 59.1356L42.1969 59.084L42.3126 58.9883L42.6035 58.6433L42.7115 58.4275L42.7392 58.3686L42.729 58.2575L42.7201 58.1651L42.6186 57.8604L42.5693 57.6575L42.5533 57.5937L42.4504 57.1725L42.4245 57.0681L42.3716 56.6763L42.2544 56.0649L42.1503 55.7214L42.0675 55.3727L41.9937 54.9942L41.8707 54.5822L41.8012 54.4241L41.7328 54.2595L41.6869 53.8551L41.6671 53.8001L41.4586 53.3234L41.3707 53.0612L41.3565 52.932L41.3895 52.7587L41.4562 52.6516L41.6027 52.5539L41.6416 52.4764L41.6308 52.3619L41.5812 52.2696L41.4878 52.1181L41.3219 51.7803L41.0774 51.2502L40.9003 50.8566L40.7873 50.6627L40.7398 50.5546L40.6943 50.4519L40.5541 50.173L40.6367 50.1242L40.6614 50.1128L41.9633 49.4595L42.2846 49.2999L43.1473 48.8743L43.1712 48.8599L43.1605 48.8521L42.9033 48.7979L42.646 48.7634L42.5857 48.7414L42.448 48.7061L42.2365 48.6218L42.1415 48.5687L42.0624 48.515L41.8749 48.3706L41.7363 48.2584L41.5849 48.1335L41.4477 48.0271L41.4303 48.0118L41.389 47.9733L41.3557 47.9492L41.3192 47.9223L41.2717 47.8868L41.1429 47.9278L41.0838 47.8422L41.0666 47.8182L41.0003 47.7093L40.9482 47.6183L40.9261 47.5802L40.8996 47.5231L40.8583 47.4471L40.8532 47.4263L40.7815 47.2906L40.7198 47.1854L40.6942 47.142L40.6666 47.0943L40.6591 47.075L40.6022 46.9992L40.5609 46.9352L40.4967 46.8491L40.4458 46.7684L40.3889 46.6939L40.382 46.6786L40.3091 46.5843L40.2221 46.474L40.1711 46.4177L40.1623 46.4077L40.1259 46.3748L40.0373 46.2993L40.0117 46.2642L39.9024 46.1806L39.8235 46.1026L39.7269 46.0163L39.6871 45.9872L39.4469 45.7574L39.3655 45.6717L39.1445 45.6978L39.0596 45.6051L38.9384 45.4807L38.8684 45.4051L38.8515 45.3914L38.7069 45.2442L38.5519 45.0907L38.474 45.008L38.4183 44.9426L38.27 44.7465L38.1767 44.626L38.0653 44.4904L38.0577 44.4817L37.9323 44.2985L37.9058 44.2486L37.8772 44.202L37.8715 44.1916L37.7211 43.9583L37.7174 43.9534L37.6905 43.9145L37.6245 43.8195L37.5733 43.7614L37.4982 43.6406L37.3649 43.4385L37.3547 43.4214L37.2074 43.1748L37.0407 42.7673L36.9788 42.6226L36.947 42.5762L36.8697 42.42L36.7969 42.2722L36.7428 42.1245L36.7331 42.0733L36.7295 42.0262L36.7345 41.9569L36.7656 41.8479L36.8076 41.7754L36.888 41.6393L36.9181 41.5797L37.0394 41.3323L37.1345 41.1834L37.24 41.0684L37.2905 40.9653L37.3399 40.8453L37.3858 40.7325L37.4204 40.6361L37.4302 40.6092L37.4031 40.6042L37.4961 40.2656L37.5776 40.119L37.5869 39.6772L37.5899 39.4426L37.5901 39.4386L37.5904 39.4192L37.5843 39.2667L37.5861 39.2524L37.8586 39.1619L37.8687 39.1586L37.699 39.0328L37.4365 38.829L37.3635 38.7824L36.7119 38.3495L36.4498 38.2062L36.4221 38.1853L36.3213 38.1092L36.232 38.0433L36.1314 37.9691L36.0061 37.8981L35.9636 37.8583L35.901 37.8001L35.7737 37.7146L35.6616 37.6643L35.587 37.6255L35.4971 37.5628L35.2434 37.3763L35.0702 37.2737L34.8985 37.1679L34.7095 37.0386L34.5975 36.9633L34.4646 36.8258L34.3103 36.6584L34.2864 36.6334L34.2473 36.5619L34.1685 36.4631L34.0618 36.3479L34.0363 36.3082L33.803 36.0144L33.6542 35.8138L33.5676 35.7193L33.503 35.6443L33.3546 35.4738L33.2989 35.3905L33.1512 35.2096L32.8592 34.8693L32.8219 34.8192L32.7809 34.7488L32.7556 34.7157L32.6893 34.6486L32.5561 34.4972L32.3767 34.2783L32.2545 34.1236L32.0975 33.9335L32.0669 33.9017L32.0367 33.8605L31.9178 33.6966L31.8435 33.5621L31.8231 33.5145L31.8113 33.2461L31.8093 33.2335L31.7239 32.7948L31.6941 32.5126L31.7043 32.4695L31.771 32.3683L31.9758 32.1311L32.1869 31.8677L32.2776 31.6891L32.4037 31.5134L32.426 31.4008L32.4296 31.3008L32.4059 31.2461L32.2605 31.1211L31.9107 30.9135L31.4969 30.6654L31.2491 30.508L31.0979 30.4362L30.8525 30.269L30.7459 30.2015L30.14 29.8565L29.9618 29.7368L29.7717 29.6068L29.6955 29.5675L29.5497 29.5012L29.4427 29.468L29.3474 29.4589L28.9238 29.377L28.356 29.2744L28.3324 29.2699L28.3741 29.1466L28.397 29.0767L28.4292 28.9876L28.475 28.8598L28.4992 28.7825L28.5343 28.6959L28.5627 28.6178L28.6176 28.4777L28.6473 28.4042L28.5254 28.3706L28.4815 28.3583L28.3513 28.3388L28.2941 28.329L28.3097 28.3126L28.3446 28.233L28.2119 28.1814L28.2263 28.1381L28.2215 28.0985L28.2336 28.0459L28.252 28.001L28.3242 27.8601L28.3362 27.8139L28.3318 27.7716L28.2722 27.7137L28.2337 27.6384L28.2321 27.6349L28.1697 27.5066L28.1446 27.4629L28.125 27.3777L28.1068 27.2963L28.1394 27.2837L28.224 27.3405L28.3519 27.4181L28.4826 27.4588L28.5237 27.4709L28.65 27.4788L28.702 27.4739L28.7631 27.4988L28.8345 27.4926L28.9045 27.508L28.9227 27.5119L28.9969 27.3323L29.0621 27.1783L29.1077 27.0772L29.1691 26.9421L29.1873 26.8989L29.2244 26.8464L29.2583 26.8168L29.2752 26.8233L29.2606 26.835L29.3856 26.8623L29.9171 26.9905L29.8646 27.0869L30.1258 27.148L30.2032 27.1612L30.4882 27.2096L30.6072 27.2264L30.7681 27.2725L30.8408 27.2909L31.142 27.4146L31.1981 27.4392L31.2785 27.4831L31.4183 27.5501L31.7205 27.6804L31.811 27.7114L32.1536 27.8682L32.3485 27.9521L32.4969 28.0046L32.547 28.0234L32.5672 28.031L32.7336 28.0927L32.9343 28.1834L33.1517 28.2776L33.3138 28.3221L33.3302 28.3248L33.3844 28.3416L33.51 28.3771L33.5812 28.3909L33.6523 28.4047L33.8299 28.4572L33.9395 28.4975L33.8294 28.681L33.8608 28.6895L33.8611 28.6891L34.1574 28.7666L34.1884 28.7183L34.2006 28.6889L34.3002 28.5002L34.3179 28.4663L34.327 28.4426L34.3406 28.4118L34.5716 28.4305L34.6717 28.4387L34.7087 28.4415L34.8766 28.4358L35.0008 28.431L35.1523 28.4421L35.2881 28.4726L35.3086 28.4774L35.4229 28.4857L35.4806 28.4899L35.4936 28.4754L35.527 28.4746L35.5557 28.4813L35.5614 28.4917L35.5708 28.4933L35.8584 28.5393L35.8758 28.5265L35.9882 28.5257L36.1262 28.5493L36.1496 28.5096L36.2432 28.5254L36.4909 28.5863L36.5594 28.5859L36.584 28.6453L36.7071 28.6636L36.7845 28.6787L36.8137 28.6833L36.8321 28.6678L36.8843 28.6778L37.3772 28.7753L37.3887 28.7776L37.5768 28.8283L37.7773 28.8825L37.8463 28.9009L37.8587 28.9258L37.8981 29.0029L37.891 29.0268L38.0614 29.1073L38.1499 29.1494L38.2943 29.1785L38.3232 29.1842L38.3462 29.189L38.5158 29.2337L38.519 29.2347L38.5466 29.2532L38.0963 29.8755L37.7773 30.3023L37.2833 30.9829L37.3911 31.0093L37.6229 30.8225L37.6311 30.8238L37.6931 30.8243L37.998 30.6085L38.1229 30.6298L38.1394 30.6027L38.1655 30.5595L38.2165 30.5401L38.3066 30.5208L38.4159 30.4745L38.4847 30.4039L38.5057 30.4365L38.5772 30.4511L38.8511 30.4272L38.9385 30.4501L38.9816 30.435L39.0942 30.4057L39.1768 30.3724L39.2172 30.3722L39.3399 30.3586L39.4111 30.3439L39.5512 30.2938L39.6925 30.2368L39.7111 30.223L39.7116 30.2406L39.7164 30.4679L39.7193 30.7076L39.7199 30.73L39.7265 30.9073L39.7568 30.9342L39.9941 31.1311L40.0139 31.1473L40.0658 31.1906L40.3 31.3723L40.3113 31.3817L40.3391 31.4033L40.3603 31.4205L40.4918 31.5255L40.8114 31.7938L40.9824 31.5005L41.0064 31.46L41.3085 30.9533L41.4898 30.9851L41.5299 30.9906L41.5682 31.0008L41.7458 31.0498L41.7628 31.0619L41.8364 31.0844L41.9511 31.1162L42.0248 31.1365L42.0475 31.144L42.1397 31.1732L42.2891 31.2199L42.4031 31.244L42.4758 31.2696L42.5074 31.2801L42.6188 31.3156L42.726 31.3495L42.9147 31.4095L42.7195 31.7693L42.9391 31.8298L42.9752 31.8386L43.1722 31.8863L43.2613 31.9026L43.4115 31.941L43.4269 31.9447L43.6059 31.9881L43.6167 31.9912L43.753 32.0303L43.8394 32.0549L43.8775 32.0639L43.8914 32.0679L44.058 32.1124L44.092 32.1204L44.3537 32.1829L44.384 32.1896L44.6436 32.246L44.6234 32.2991L44.5934 32.3773L44.5732 32.4304L44.5694 32.4404L44.553 32.4896L44.5325 32.5521L44.5447 32.5549L44.5733 32.4824L44.6245 32.4482L44.6571 32.4666L44.6649 32.4682L45.0726 32.5639L45.3707 32.633L45.5518 32.6522L45.5645 32.6548L45.5626 32.6618L45.8367 32.7202L45.8651 32.7226L47.9074 33.194L48.0028 33.1342L48.0297 33.1093L48.0412 33.0974L48.0287 33.0943L48.0297 33.0932L48.0377 33.095L48.0777 33.0403L48.188 32.8873L48.2429 32.8116L48.3008 32.7272L48.3995 32.5897L48.4766 32.4764L48.5695 32.3428L48.6171 32.2776L48.6689 32.21L48.7014 32.1657L48.8558 32.1799L49.3654 32.3209L49.4319 32.3363L49.8677 32.4366L49.9195 32.4267L49.6401 32.7222L49.7561 32.7906L49.7822 32.8063L49.8018 32.8177L49.8417 32.8416L49.9343 32.8984L49.9495 32.9074L49.9922 32.9313L50.041 32.9605L50.0786 32.9857L50.1196 33.0139L50.1315 33.0213L50.2104 33.0713L50.2482 33.0937L50.257 33.0978L50.287 33.112L50.3058 33.1086L50.3641 33.1382L50.4302 33.1755L50.4979 33.2191L50.5395 33.2649L50.5407 33.2657L50.6061 33.3085L50.642 33.3242L50.7416 33.3697L50.7795 33.3886L50.8211 33.4052L50.8511 33.4236L50.8734 33.4373L51.0562 33.5566L52.1333 32.8875L52.1421 32.8911L52.2517 32.9558L52.3237 32.9946L52.479 33.078L52.577 33.1319L52.6874 33.193L52.7578 33.2152L52.7311 33.301L52.8131 33.3108L52.981 33.3312L53.0123 33.3349L53.7772 33.4477L53.7936 33.4521L53.8508 33.4691L53.9177 33.4771L54.0007 33.4906L54.0642 33.501L54.1527 33.5176L54.8813 33.6387L55.0208 33.6573L55.0576 33.6624L55.1681 33.6746L55.281 33.698L55.3855 33.7235L55.5797 33.7461L55.5816 33.7462L55.7192 33.766L55.8382 33.7893L55.9178 33.8046L55.9704 33.8119L56.0922 33.8282L56.2108 33.8429L56.2928 33.8533L56.3725 33.8723L56.4382 33.8872L56.6277 33.9495L56.7348 33.9905L56.9068 34.0518L57.0503 34.1076L57.1133 34.1243L57.1495 34.1343L57.1873 34.1472L57.3392 34.2087L57.3747 34.2225L57.4644 34.2565L57.6342 34.3157L57.7747 34.3589L57.9529 34.4177L58.0682 34.4523L58.1109 34.4655L58.123 34.4766L58.1482 34.4994L58.1514 34.5058L58.1674 34.5368L58.2355 34.6701L58.3594 34.8588L58.3606 34.8608L58.4248 34.8884L58.5354 34.9192L58.6157 34.9475L58.8106 34.9968L58.8883 35.0221L59.1613 35.1137L59.2368 35.1358L59.3072 35.1569L59.3132 35.1586L59.36 35.1734L59.3777 35.1787L59.5228 35.2285L59.6222 35.2619L59.7069 35.2878L59.7994 35.3147L60.241 35.4493L60.3367 35.4778L60.6001 35.5975L60.63 35.5836L60.6832 35.5437L60.7876 35.4511L61.0645 35.534L61.1807 35.565L61.2865 35.589L61.4083 35.619L61.5347 35.6604L61.6008 35.6893L61.6927 35.7355L61.7167 35.7469L61.7839 35.7777L61.9718 35.8682L62.0709 35.9127L62.1346 35.9525L62.1546 35.9635L62.2095 35.9926L62.3328 36.0588L62.3689 36.0777L62.3918 36.0907L62.4238 36.1086L62.4717 36.1324L62.5295 36.1659L62.5391 36.1706L62.6423 36.2297L62.7116 36.2685L62.7816 36.3072L62.8009 36.3184L62.9049 36.3703L62.9628 36.4093L62.9986 36.4184L63.0236 36.3934L63.0858 36.3316L63.1733 36.2283L63.3078 36.0833L63.4187 35.9641L63.435 35.9465L63.4851 35.8931L63.5281 35.847L63.5401 35.8204L63.5659 35.8133L63.6461 35.8273L63.8381 35.8466L63.9075 35.8545L64.0585 35.8689L64.2457 35.8916L64.4234 35.912L64.4439 35.9145L64.599 35.9287L64.7036 35.937L64.9297 35.9661L65.0547 35.9868L65.1817 35.9846L66.1232 35.8638L66.6032 35.8311L67.1629 35.1191L68.1619 34.2433L69.3593 33.2058L69.6107 32.7491L70.161 31.4784L70.7824 30.5992L70.8636 30.4977L70.9019 30.4465L70.9633 30.368L71.3286 30.1242L71.4451 30.0028L71.7601 29.5024L71.8649 29.3148L72.1446 28.7632L72.4341 28.2266L72.6485 27.8475L72.8686 27.4358L73.0082 27.2073L73.0851 27.0992L73.88 27.2113L80.1575 27.7436L80.4309 27.7461L80.4281 27.4766L80.4158 27.2718L80.3931 26.9598L80.3829 26.4918L80.3528 26.1636L80.3146 25.6642L80.2977 25.5498L80.2015 25.2457L80.1042 24.908L80.0428 24.7071L79.9115 24.4401L79.8824 24.3819L79.6926 23.9476L79.7431 23.6967L79.7886 23.5187L79.834 23.2102L79.9487 22.8082L80.0942 22.185L80.101 21.9828L80.1553 21.6671L80.2618 21.2573L80.3022 21.1121L80.3424 20.7269L80.3785 20.4341L80.3058 20.0141L80.1773 19.6264L79.9809 19.2865L79.9286 19.1929L79.8479 19.1102L79.6664 18.9579L79.4323 18.7852L79.2126 18.6114L79.0096 18.447L78.9332 18.3647L78.8874 18.2112L78.8106 18.0404L78.72 17.9373L78.5502 17.7875L78.4089 17.6837L78.4044 17.6866L78.3984 17.682L78.3486 17.6235L78.3647 17.561L78.4228 17.4273L78.6425 17.0606L78.6589 17.0329L78.9461 16.5323L79.0872 16.2571L79.3232 15.8561L79.3483 15.8092L79.389 15.7746L79.5296 15.6796L79.8 15.5221L79.8138 15.5141L79.9481 15.4422L80.1369 15.6793L80.1261 16.0677L80.1089 16.242L80.1208 16.3012L80.2284 16.4706L80.2446 16.4964L80.6424 16.7314L80.8789 16.7812L81.048 16.8162L81.3849 17.0031L81.5009 17.1204L81.5942 17.4285L81.7058 17.6321L82.3299 18.3975L83.2642 19.7126L84.0295 20.8003L84.1742 21.1543L84.456 21.4109L84.5022 21.4527L84.6868 21.7006L85.0765 22.3973L86.0288 23.7292L86.1179 24.0018L86.5388 25.1168L86.618 25.3476L86.9295 25.7355L87.0062 25.8317L88 26.8061L88.0901 26.894L88.5421 27.281L89.3293 27.0453L90.3994 26.7601L92.4673 26.3287L93.7121 26.0828L94.1737 26.3535L94.4682 26.2986L95.4597 25.9046L96.1433 25.5606L96.3493 25.5017L96.5927 25.6676L96.5326 25.6886L96.7276 25.8118L96.9621 25.9824L97.1189 26.1103L97.1473 26.1223L97.5246 26.275L97.8376 26.3017L97.9354 26.3555L98.3954 26.4946L99.0106 26.368L99.4015 26.344L99.6257 26.339L99.9849 26.3795L100.235 26.3541L100.409 26.3255L100.605 26.3202L101.122 26.3353L101.388 26.3664L101.495 26.3788L101.519 26.3816L101.522 26.3822L101.681 26.4393L101.93 26.5867L102.444 26.7483L102.748 26.8006L102.748 26.8009L103.265 26.8633L103.57 26.9055L103.84 26.9875L104.042 27.0632L104.349 27.1913L104.546 27.2613L104.796 27.3257L105.006 27.3546L105.445 27.3146L105.542 27.3014L106.63 26.8992L106.992 26.901L108.124 27.1943L108.496 27.4312L108.966 27.709L109.617 28.0133L110.129 27.9574L110.449 27.9734L110.717 28.1009L111.179 28.2946L110.847 28.8564L109.958 29.7833L108.707 30.8518L108.101 31.4191L107.762 31.9514L107.561 32.2647L106.891 34.0766L106.873 35.0178L108.496 35.1164L109.498 35.347L109.901 35.4801L110.682 35.7388L111.876 36.4616L112.894 37.24L113.237 37.6286L113.712 38.1644L113.777 38.2419L113.821 38.2976L114.663 39.0207L115.313 39.63L115.35 39.6643L116.075 40.4833L116.174 40.5671L116.533 41.2771L116.764 41.8592L116.936 42.843L117.228 43.6683L117.676 44.1928L118.319 44.7322L118.537 44.8201L119.872 45.2994L121.244 45.7049L121.787 45.9528L122.351 46.3517L123.073 46.5439L124.356 46.7643L124.639 46.4398L126.117 46.9057L126.596 47.1174L127.398 47.5146L127.76 47.8994L128.186 48.3869L128.871 49.4207L129.169 50.2136L129.149 51.7529L129.144 51.8082L129.376 52.5793L129.49 52.9122L129.487 52.9324L129.548 53.15L129.936 54.1011L130.298 54.607L130.993 55.478L131.616 56.0456L132.097 56.7216L131.549 56.9844L130.799 57.2809L130.614 57.3767L130.502 57.4099L130.224 57.5025L130.069 57.5769L130.078 57.6183L130.126 57.7663L129.858 57.7524L129.621 57.7613L129.437 57.7883L129.31 57.7967L129.179 57.831L128.825 58.2419L128.256 59.3L127.933 59.8461L127.702 59.865L127.793 60.0818L128.329 60.4255L128.424 60.5653L128.499 60.7805L128.554 61.3049L128.54 61.9976L128.562 62.2179L128.613 62.4995L128.688 63.1703L128.762 63.6117L128.881 63.822L129.118 64.0069L129.353 64.1121L129.606 64.5478L129.637 64.9017L129.714 65.0685L129.777 65.2302L128.984 65.3347L128.968 65.4391L128.953 65.5105L128.915 65.8976L128.897 66.1463L128.809 66.4818L128.787 66.7672L128.796 66.8737L128.765 66.9811L128.612 67.2379L128.523 67.3151L128.196 67.4818L128.108 67.5251L127.985 67.5912L127.852 67.6672L127.735 67.7506L127.674 67.8002L127.419 68.0143L127.425 68.0167L127.369 68.0499L126.967 67.8758L126.604 67.674L126.533 67.7164L126.425 67.7436L126.322 67.73L126.28 67.7201L126.238 67.7073L126.154 67.6771L126.06 67.6335L125.692 67.4641L125.662 67.465L125.612 67.472L125.215 67.5663L125.027 67.7338L124.664 68.0384L124.326 68.3625L124.051 68.7191L123.919 68.9721L123.9 69.0774L123.882 69.0875L123.214 69.638L122.693 69.6598L122.476 69.7031L122.378 69.7601L122.378 69.7994L122.376 70.0621L122.107 70.4521L121.997 70.6289L121.899 70.7201L121.816 70.8134L121.685 71.1313L121.601 71.1933L120.975 71.3155L120.772 71.241L120.688 71.1772L120.576 71.2591L120.292 71.5476L119.916 71.9724L119.88 72.0771L119.836 72.3841L119.816 72.4621L119.73 72.5238L119.591 72.581L119.488 72.5957L119.362 72.6175L119.232 72.6539L119.111 72.7022L119.01 72.7541L118.913 72.8265L118.832 72.9189L118.783 72.9977L118.728 73.1925L118.684 73.2641L118.637 73.3438L118.595 73.4187L118.584 73.4949L118.577 73.5377L118.502 74.2553L118.387 75.1225L117.854 74.9755L117.434 74.9049L116.608 74.8219L112.911 74.1889L99.1327 72.8125L91.057 71.3179L84.53 70.1283L81.8662 69.6863L72.5325 68.1506L72.2387 68.1004L71.5192 68.0504L64.4046 67.5373L64.3696 67.7319L63.9738 67.7056L61.8555 67.6199L61.6967 67.6163L56.7563 67.5132L56.5206 67.5205L55.488 67.5539L54.4554 67.5937L51.3626 67.8241L49.3557 68.0855L49.1333 68.1143L46.7889 68.5935L46.6207 68.648L45.4163 69.0354L44.2472 69.4308L42.6947 69.9718L40.7813 70.6297L39.7841 70.9718Z" fill="#D3FB8C"/>
</svg>
